<?xml version="1.0" encoding="UTF-8"?>
<svg xmlns="http://www.w3.org/2000/svg" xmlns:xlink="http://www.w3.org/1999/xlink" width="3000" height="3000" viewBox="0">
<path fill-rule="nonzero" fill="rgb(100%, 100%, 100%)" fill-opacity="0" d="M 0.871094 0 L 2999.128906 0 C 2999.609375 0 3000 0.390625 3000 0.871094 L 3000 2999.128906 C 3000 2999.613281 2999.609375 3000 2999.128906 3000 L 0.871094 3000 C 0.386719 3000 0 2999.613281 0 2999.128906 L 0 0.871094 C 0 0.390625 0.386719 0 0.871094 0 Z M 0.871094 0 "/>
<path fill-rule="nonzero" fill="rgb(78.514099%, 66.992188%, 21.556091%)" fill-opacity="1" d="M 1394.601562 879.011719 L 1067.238281 1220.21875 L 990.695312 1110.761719 L 872.371094 1174.558594 L 877.414062 1418.070312 L 877.417969 1418.070312 L 1606.46875 1912.890625 L 2123.648438 1373.828125 L 2118.601562 1130.320312 L 1899.589844 1221.761719 Z M 1394.601562 879.011719 "/>
<path fill-rule="nonzero" fill="rgb(87.109375%, 80.46875%, 52.929688%)" fill-opacity="1" d="M 872.371094 1174.558594 L 1389.558594 635.5 L 2118.609375 1130.320312 L 1601.421875 1669.371094 Z M 872.371094 1174.558594 "/>
<path fill-rule="nonzero" fill="rgb(94.921875%, 94.921875%, 94.921875%)" fill-opacity="1" d="M 1599.171875 1671.769531 C 1600.539062 1738.148438 1604.550781 1820.21875 1605.929688 1886.609375 L 2107.828125 1367.660156 C 2106.449219 1301.28125 2104.570312 1216.570312 2103.191406 1150.179688 Z M 1599.171875 1671.769531 "/>
<path fill-rule="nonzero" fill="rgb(100%, 100%, 100%)" fill-opacity="1" d="M 1606.011719 1890.75 L 876.933594 1394.550781 L 872.371094 1174.558594 L 1601.421875 1669.371094 L 1606.46875 1912.890625 "/>
<path fill-rule="nonzero" fill="rgb(87.109375%, 80.46875%, 52.929688%)" fill-opacity="1" d="M 2061.921875 1263.621094 L 1987.601562 1345.53125 L 1988.070312 1424.109375 L 2029.371094 1348.761719 L 2062.839844 1348.320312 Z M 2061.921875 1263.621094 "/>
<path fill-rule="nonzero" fill="rgb(0%, 4.704285%, 29.026794%)" fill-opacity="1" d="M 1394.601562 879.011719 L 1067.238281 1220.21875 L 990.695312 1110.761719 L 872.371094 1174.558594 L 877.414062 1418.070312 L 877.417969 1418.070312 L 1606.46875 1912.890625 L 2123.648438 1373.828125 L 2118.601562 1130.320312 L 1899.589844 1221.761719 Z M 1394.601562 879.011719 "/>
<path fill-rule="nonzero" fill="rgb(23.925781%, 28.637695%, 43.920898%)" fill-opacity="1" d="M 872.371094 1174.558594 L 1389.558594 635.5 L 2118.609375 1130.320312 L 1601.421875 1669.371094 Z M 872.371094 1174.558594 "/>
<path fill-rule="nonzero" fill="rgb(94.921875%, 94.921875%, 94.921875%)" fill-opacity="1" d="M 1599.171875 1671.769531 C 1600.539062 1738.148438 1604.550781 1820.21875 1605.929688 1886.609375 L 2107.828125 1367.660156 C 2106.449219 1301.28125 2104.570312 1216.570312 2103.191406 1150.179688 Z M 1599.171875 1671.769531 "/>
<path fill-rule="nonzero" fill="rgb(100%, 100%, 100%)" fill-opacity="1" d="M 1606.011719 1890.75 L 876.933594 1394.550781 L 872.371094 1174.558594 L 1601.421875 1669.371094 L 1606.46875 1912.890625 "/>
<path fill-rule="nonzero" fill="rgb(0%, 4.704285%, 29.026794%)" fill-opacity="1" d="M 2061.921875 1263.621094 L 1987.601562 1345.53125 L 1988.070312 1424.109375 L 2029.371094 1348.761719 L 2062.839844 1348.320312 Z M 2061.921875 1263.621094 "/>
<path fill-rule="nonzero" fill="rgb(100%, 100%, 100%)" fill-opacity="1" d="M 1152.589844 1216.839844 C 1137.648438 1183.789062 1118.039062 1138.480469 1117.191406 1094.839844 C 1116.449219 1065.640625 1125.121094 1034.050781 1145.628906 1007.578125 C 1161.519531 987.101562 1184.128906 968.96875 1211.609375 958.878906 C 1232.890625 951 1257.980469 948.460938 1281.871094 953.210938 C 1305.070312 957.601562 1327.660156 968.640625 1347.578125 983.601562 C 1368.109375 999.089844 1385.570312 1018.671875 1401.070312 1040.480469 C 1413.019531 1057.671875 1423.941406 1075.269531 1429.558594 1093.230469 C 1430.960938 1098.109375 1432.121094 1102.191406 1431.890625 1105.238281 C 1431.730469 1106.179688 1431.890625 1106.171875 1432.039062 1105.179688 C 1430.269531 1104.910156 1433.230469 1102.351562 1440.53125 1096.839844 C 1453.941406 1095.21875 1461.449219 1096.429688 1463.511719 1101.039062 C 1465.738281 1104.089844 1466.699219 1105.160156 1465.988281 1104.550781 C 1465.140625 1102.851562 1465.429688 1099.429688 1465.378906 1094.609375 C 1466.089844 1076.160156 1472.039062 1057.410156 1480.179688 1038.570312 C 1490.988281 1014.308594 1506.449219 991.421875 1527.539062 973.890625 C 1532.929688 969.359375 1538.699219 965.121094 1544.78125 961.21875 C 1564.199219 948.75 1586.460938 939.871094 1609.628906 935.308594 C 1639.628906 929.691406 1671.371094 931.25 1696.230469 943.300781 C 1724.808594 956.179688 1746.058594 981.78125 1756.929688 1008.660156 C 1771.480469 1044.371094 1766.558594 1084.5 1752 1118.5 C 1730.210938 1169.300781 1687.839844 1214.300781 1650.980469 1252.980469 C 1609.230469 1296.480469 1565.628906 1335.980469 1523.890625 1379.480469 C 1492.339844 1412.371094 1468.679688 1441.289062 1450.878906 1471.78125 C 1437.890625 1493.929688 1430.390625 1514.390625 1427.609375 1533.78125 C 1424.300781 1558.890625 1432.050781 1580.898438 1437.011719 1592.269531 C 1442.539062 1604.929688 1447.230469 1610.808594 1448.359375 1610.46875 C 1449.878906 1610.011719 1447.878906 1603.269531 1445.101562 1590.488281 C 1442.660156 1579.28125 1438.191406 1557.5 1443.589844 1536.660156 C 1447.800781 1519.351562 1456.21875 1501.601562 1469.808594 1481.410156 C 1488.75 1453.390625 1512.691406 1427.359375 1545.210938 1396.101562 C 1583.53125 1359.371094 1629.890625 1320.089844 1677.328125 1273.289062 C 1716.070312 1235.359375 1761.378906 1188.789062 1787.789062 1131.910156 C 1806.128906 1092.429688 1812.160156 1044.609375 1794.960938 998.460938 C 1781.921875 963.648438 1754.328125 930.789062 1714.488281 911.539062 C 1678.339844 894.929688 1636.890625 891.921875 1599.058594 899.589844 C 1570.371094 905.191406 1543.109375 915.988281 1519.289062 931.308594 C 1511.820312 936.109375 1504.738281 941.320312 1498.089844 946.921875 C 1472.078125 968.960938 1453.558594 996.089844 1441.390625 1024.320312 C 1432.070312 1045.371094 1425.371094 1068 1424.339844 1091.871094 C 1423.859375 1097.601562 1424.179688 1104.921875 1426.738281 1113.429688 C 1426.851562 1115.25 1428.769531 1118.820312 1432.898438 1123.820312 C 1435.929688 1129.421875 1445.03125 1131.398438 1459.71875 1129.230469 C 1468.789062 1122.960938 1472.488281 1118.550781 1471.269531 1116.621094 C 1472.46875 1112.539062 1472.859375 1109.289062 1472.730469 1106.980469 C 1472.621094 1098.441406 1470.871094 1090.949219 1468.621094 1084.640625 C 1460.808594 1061.558594 1448.089844 1040.96875 1434.679688 1022.671875 C 1417.390625 998.570312 1396.78125 976.351562 1372.039062 958 C 1347.609375 939.820312 1318.820312 926.660156 1288.199219 921.058594 C 1255.921875 915.378906 1223.640625 919.210938 1196.21875 930.058594 C 1162.148438 943.640625 1135.589844 965.96875 1117.628906 990.941406 C 1094.140625 1023.558594 1085.46875 1060.820312 1087.808594 1094.921875 C 1091.539062 1144.839844 1194.339844 1308.410156 1152.589844 1216.839844 Z M 1152.589844 1216.839844 "/>
</svg>
