<?xml version="1.0" encoding="UTF-8"?>
<svg xmlns="http://www.w3.org/2000/svg" xmlns:xlink="http://www.w3.org/1999/xlink" width="3000" height="3000" viewBox="0 0 3000 3000">
<path fill-rule="nonzero" fill="rgb(100%, 100%, 100%)" fill-opacity="0" d="M 0.871094 0 L 2999.128906 0 C 2999.609375 0 3000 0.390625 3000 0.871094 L 3000 2999.128906 C 3000 2999.613281 2999.609375 3000 2999.128906 3000 L 0.871094 3000 C 0.386719 3000 0 2999.613281 0 2999.128906 L 0 0.871094 C 0 0.390625 0.386719 0 0.871094 0 Z M 0.871094 0 "/>
<path fill-rule="nonzero" fill="rgb(78.514099%, 66.992188%, 21.556091%)" fill-opacity="1" d="M 1394.601562 879.011719 L 1067.238281 1220.21875 L 990.695312 1110.761719 L 872.371094 1174.558594 L 877.414062 1418.070312 L 877.417969 1418.070312 L 1606.46875 1912.890625 L 2123.648438 1373.828125 L 2118.601562 1130.320312 L 1899.589844 1221.761719 Z M 1394.601562 879.011719 "/>
<path fill-rule="nonzero" fill="rgb(87.109375%, 80.46875%, 52.929688%)" fill-opacity="1" d="M 872.371094 1174.558594 L 1389.558594 635.5 L 2118.609375 1130.320312 L 1601.421875 1669.371094 Z M 872.371094 1174.558594 "/>
<path fill-rule="nonzero" fill="rgb(94.921875%, 94.921875%, 94.921875%)" fill-opacity="1" d="M 1599.171875 1671.769531 C 1600.539062 1738.148438 1604.550781 1820.21875 1605.929688 1886.609375 L 2107.828125 1367.660156 C 2106.449219 1301.28125 2104.570312 1216.570312 2103.191406 1150.179688 Z M 1599.171875 1671.769531 "/>
<path fill-rule="nonzero" fill="rgb(100%, 100%, 100%)" fill-opacity="1" d="M 1606.011719 1890.75 L 876.933594 1394.550781 L 872.371094 1174.558594 L 1601.421875 1669.371094 L 1606.46875 1912.890625 "/>
<path fill-rule="nonzero" fill="rgb(87.109375%, 80.46875%, 52.929688%)" fill-opacity="1" d="M 2061.921875 1263.621094 L 1987.601562 1345.53125 L 1988.070312 1424.109375 L 2029.371094 1348.761719 L 2062.839844 1348.320312 Z M 2061.921875 1263.621094 "/>
<path fill-rule="nonzero" fill="rgb(0%, 4.704285%, 29.026794%)" fill-opacity="1" d="M 1394.601562 879.011719 L 1067.238281 1220.21875 L 990.695312 1110.761719 L 872.371094 1174.558594 L 877.414062 1418.070312 L 877.417969 1418.070312 L 1606.46875 1912.890625 L 2123.648438 1373.828125 L 2118.601562 1130.320312 L 1899.589844 1221.761719 Z M 1394.601562 879.011719 "/>
<path fill-rule="nonzero" fill="rgb(23.925781%, 28.637695%, 43.920898%)" fill-opacity="1" d="M 872.371094 1174.558594 L 1389.558594 635.5 L 2118.609375 1130.320312 L 1601.421875 1669.371094 Z M 872.371094 1174.558594 "/>
<path fill-rule="nonzero" fill="rgb(94.921875%, 94.921875%, 94.921875%)" fill-opacity="1" d="M 1599.171875 1671.769531 C 1600.539062 1738.148438 1604.550781 1820.21875 1605.929688 1886.609375 L 2107.828125 1367.660156 C 2106.449219 1301.28125 2104.570312 1216.570312 2103.191406 1150.179688 Z M 1599.171875 1671.769531 "/>
<path fill-rule="nonzero" fill="rgb(100%, 100%, 100%)" fill-opacity="1" d="M 1606.011719 1890.75 L 876.933594 1394.550781 L 872.371094 1174.558594 L 1601.421875 1669.371094 L 1606.46875 1912.890625 "/>
<path fill-rule="nonzero" fill="rgb(0%, 4.704285%, 29.026794%)" fill-opacity="1" d="M 2061.921875 1263.621094 L 1987.601562 1345.53125 L 1988.070312 1424.109375 L 2029.371094 1348.761719 L 2062.839844 1348.320312 Z M 2061.921875 1263.621094 "/>
<path fill-rule="nonzero" fill="rgb(100%, 100%, 100%)" fill-opacity="1" d="M 1152.589844 1216.839844 C 1137.648438 1183.789062 1118.039062 1138.480469 1117.191406 1094.839844 C 1116.449219 1065.640625 1125.121094 1034.050781 1145.628906 1007.578125 C 1161.519531 987.101562 1184.128906 968.96875 1211.609375 958.878906 C 1232.890625 951 1257.980469 948.460938 1281.871094 953.210938 C 1305.070312 957.601562 1327.660156 968.640625 1347.578125 983.601562 C 1368.109375 999.089844 1385.570312 1018.671875 1401.070312 1040.480469 C 1413.019531 1057.671875 1423.941406 1075.269531 1429.558594 1093.230469 C 1430.960938 1098.109375 1432.121094 1102.191406 1431.890625 1105.238281 C 1431.730469 1106.179688 1431.890625 1106.171875 1432.039062 1105.179688 C 1430.269531 1104.910156 1433.230469 1102.351562 1440.53125 1096.839844 C 1453.941406 1095.21875 1461.449219 1096.429688 1463.511719 1101.039062 C 1465.738281 1104.089844 1466.699219 1105.160156 1465.988281 1104.550781 C 1465.140625 1102.851562 1465.429688 1099.429688 1465.378906 1094.609375 C 1466.089844 1076.160156 1472.039062 1057.410156 1480.179688 1038.570312 C 1490.988281 1014.308594 1506.449219 991.421875 1527.539062 973.890625 C 1532.929688 969.359375 1538.699219 965.121094 1544.78125 961.21875 C 1564.199219 948.75 1586.460938 939.871094 1609.628906 935.308594 C 1639.628906 929.691406 1671.371094 931.25 1696.230469 943.300781 C 1724.808594 956.179688 1746.058594 981.78125 1756.929688 1008.660156 C 1771.480469 1044.371094 1766.558594 1084.5 1752 1118.5 C 1730.210938 1169.300781 1687.839844 1214.300781 1650.980469 1252.980469 C 1609.230469 1296.480469 1565.628906 1335.980469 1523.890625 1379.480469 C 1492.339844 1412.371094 1468.679688 1441.289062 1450.878906 1471.78125 C 1437.890625 1493.929688 1430.390625 1514.390625 1427.609375 1533.78125 C 1424.300781 1558.890625 1432.050781 1580.898438 1437.011719 1592.269531 C 1442.539062 1604.929688 1447.230469 1610.808594 1448.359375 1610.46875 C 1449.878906 1610.011719 1447.878906 1603.269531 1445.101562 1590.488281 C 1442.660156 1579.28125 1438.191406 1557.5 1443.589844 1536.660156 C 1447.800781 1519.351562 1456.21875 1501.601562 1469.808594 1481.410156 C 1488.75 1453.390625 1512.691406 1427.359375 1545.210938 1396.101562 C 1583.53125 1359.371094 1629.890625 1320.089844 1677.328125 1273.289062 C 1716.070312 1235.359375 1761.378906 1188.789062 1787.789062 1131.910156 C 1806.128906 1092.429688 1812.160156 1044.609375 1794.960938 998.460938 C 1781.921875 963.648438 1754.328125 930.789062 1714.488281 911.539062 C 1678.339844 894.929688 1636.890625 891.921875 1599.058594 899.589844 C 1570.371094 905.191406 1543.109375 915.988281 1519.289062 931.308594 C 1511.820312 936.109375 1504.738281 941.320312 1498.089844 946.921875 C 1472.078125 968.960938 1453.558594 996.089844 1441.390625 1024.320312 C 1432.070312 1045.371094 1425.371094 1068 1424.339844 1091.871094 C 1423.859375 1097.601562 1424.179688 1104.921875 1426.738281 1113.429688 C 1426.851562 1115.25 1428.769531 1118.820312 1432.898438 1123.820312 C 1435.929688 1129.421875 1445.03125 1131.398438 1459.71875 1129.230469 C 1468.789062 1122.960938 1472.488281 1118.550781 1471.269531 1116.621094 C 1472.46875 1112.539062 1472.859375 1109.289062 1472.730469 1106.980469 C 1472.621094 1098.441406 1470.871094 1090.949219 1468.621094 1084.640625 C 1460.808594 1061.558594 1448.089844 1040.96875 1434.679688 1022.671875 C 1417.390625 998.570312 1396.78125 976.351562 1372.039062 958 C 1347.609375 939.820312 1318.820312 926.660156 1288.199219 921.058594 C 1255.921875 915.378906 1223.640625 919.210938 1196.21875 930.058594 C 1162.148438 943.640625 1135.589844 965.96875 1117.628906 990.941406 C 1094.140625 1023.558594 1085.46875 1060.820312 1087.808594 1094.921875 C 1091.539062 1144.839844 1194.339844 1308.410156 1152.589844 1216.839844 Z M 1152.589844 1216.839844 "/>
<path fill-rule="nonzero" fill="rgb(0%, 0%, 0%)" fill-opacity="1" d="M 873.601562 2361.90625 L 873.601562 2215.390625 L 918.675781 2215.390625 C 927.804688 2215.390625 935.035156 2216.824219 940.363281 2219.6875 C 945.695312 2222.484375 950.058594 2226.882812 953.457031 2232.878906 C 956.855469 2238.875 958.554688 2245.507812 958.554688 2252.769531 C 958.554688 2259.5 957.089844 2265.5625 954.15625 2270.957031 C 951.226562 2276.355469 947.09375 2280.6875 941.765625 2283.949219 C 948.761719 2286.484375 954.257812 2290.8125 958.253906 2296.945312 C 962.320312 2303.007812 964.351562 2310.503906 964.351562 2319.429688 C 964.351562 2328.292969 962.519531 2336.085938 958.855469 2342.816406 C 955.257812 2349.480469 950.425781 2354.34375 944.363281 2357.410156 C 938.300781 2360.40625 929.972656 2361.90625 919.378906 2361.90625 Z M 889.496094 2276.953125 L 915.480469 2276.953125 C 922.277344 2276.953125 927.105469 2276.488281 929.972656 2275.554688 C 934.101562 2274.15625 937.265625 2271.824219 939.464844 2268.558594 C 941.730469 2265.226562 942.863281 2260.730469 942.863281 2255.066406 C 942.863281 2249.804688 941.832031 2245.441406 939.765625 2241.976562 C 937.765625 2238.445312 935.066406 2236.011719 931.671875 2234.679688 C 928.339844 2233.347656 922.308594 2232.679688 913.582031 2232.679688 L 889.496094 2232.679688 Z M 889.496094 2344.617188 L 919.378906 2344.617188 C 925.972656 2344.617188 930.835938 2344.015625 933.96875 2342.816406 C 938.5 2341.085938 941.929688 2338.253906 944.261719 2334.320312 C 946.660156 2330.324219 947.859375 2325.328125 947.859375 2319.332031 C 947.859375 2313.800781 946.726562 2309.136719 944.460938 2305.339844 C 942.199219 2301.472656 939.132812 2298.675781 935.269531 2296.945312 C 931.46875 2295.144531 925.472656 2294.246094 917.277344 2294.246094 L 889.496094 2294.246094 Z M 889.496094 2344.617188 "/>
<path fill-rule="nonzero" fill="rgb(0%, 0%, 0%)" fill-opacity="1" d="M 987.121094 2290.546875 C 987.121094 2265.5625 992.617188 2246.371094 1003.609375 2232.980469 C 1014.609375 2219.519531 1028.300781 2212.792969 1044.691406 2212.792969 C 1055.28125 2212.792969 1064.941406 2215.789062 1073.671875 2221.785156 C 1082.398438 2227.78125 1089.300781 2236.511719 1094.359375 2247.972656 C 1099.488281 2259.363281 1102.058594 2272.957031 1102.058594 2288.75 C 1102.058594 2310.46875 1097.128906 2328.160156 1087.269531 2341.816406 C 1076.398438 2356.875 1062.179688 2364.40625 1044.589844 2364.40625 C 1026.871094 2364.40625 1012.609375 2356.675781 1001.808594 2341.21875 C 992.019531 2327.226562 987.121094 2310.335938 987.121094 2290.546875 Z M 1003.511719 2290.847656 C 1003.511719 2308.902344 1007.480469 2322.929688 1015.410156 2332.921875 C 1023.398438 2342.851562 1033.089844 2347.8125 1044.488281 2347.8125 C 1056.148438 2347.8125 1065.910156 2342.785156 1073.769531 2332.722656 C 1081.699219 2322.660156 1085.660156 2307.871094 1085.660156 2288.347656 C 1085.660156 2275.753906 1083.628906 2264.496094 1079.570312 2254.566406 C 1076.441406 2246.972656 1071.710938 2240.910156 1065.378906 2236.378906 C 1059.109375 2231.78125 1052.25 2229.480469 1044.789062 2229.480469 C 1032.800781 2229.480469 1022.898438 2234.480469 1015.109375 2244.472656 C 1007.378906 2254.46875 1003.511719 2269.925781 1003.511719 2290.847656 Z M 1003.511719 2290.847656 "/>
<path fill-rule="nonzero" fill="rgb(0%, 0%, 0%)" fill-opacity="1" d="M 1123.328125 2290.546875 C 1123.328125 2265.5625 1128.820312 2246.371094 1139.820312 2232.980469 C 1150.808594 2219.519531 1164.5 2212.792969 1180.890625 2212.792969 C 1191.488281 2212.792969 1201.148438 2215.789062 1209.878906 2221.785156 C 1218.609375 2227.78125 1225.5 2236.511719 1230.570312 2247.972656 C 1235.691406 2259.363281 1238.261719 2272.957031 1238.261719 2288.75 C 1238.261719 2310.46875 1233.328125 2328.160156 1223.46875 2341.816406 C 1212.609375 2356.875 1198.378906 2364.40625 1180.789062 2364.40625 C 1163.070312 2364.40625 1148.808594 2356.675781 1138.019531 2341.21875 C 1128.21875 2327.226562 1123.328125 2310.335938 1123.328125 2290.546875 Z M 1139.71875 2290.847656 C 1139.71875 2308.902344 1143.679688 2322.929688 1151.609375 2332.921875 C 1159.609375 2342.851562 1169.300781 2347.8125 1180.691406 2347.8125 C 1192.359375 2347.8125 1202.121094 2342.785156 1209.980469 2332.722656 C 1217.910156 2322.660156 1221.871094 2307.871094 1221.871094 2288.347656 C 1221.871094 2275.753906 1219.839844 2264.496094 1215.769531 2254.566406 C 1212.640625 2246.972656 1207.910156 2240.910156 1201.578125 2236.378906 C 1195.320312 2231.78125 1188.460938 2229.480469 1180.988281 2229.480469 C 1169 2229.480469 1159.109375 2234.480469 1151.308594 2244.472656 C 1143.578125 2254.46875 1139.71875 2269.925781 1139.71875 2290.847656 Z M 1139.71875 2290.847656 "/>
<path fill-rule="nonzero" fill="rgb(0%, 0%, 0%)" fill-opacity="1" d="M 1263.429688 2361.90625 L 1263.429688 2215.390625 L 1279.320312 2215.390625 L 1279.320312 2288.046875 L 1338.988281 2215.390625 L 1360.570312 2215.390625 L 1310.109375 2274.757812 L 1362.769531 2361.90625 L 1341.789062 2361.90625 L 1299.011719 2287.75 L 1279.320312 2311.136719 L 1279.320312 2361.90625 Z M 1263.429688 2361.90625 "/>
<path fill-rule="nonzero" fill="rgb(0%, 0%, 0%)" fill-opacity="1" d="M 1430.910156 2361.90625 L 1430.910156 2216.589844 L 1455.101562 2216.589844 L 1455.101562 2337.21875 L 1515.460938 2337.21875 L 1515.460938 2361.90625 Z M 1430.910156 2361.90625 "/>
<path fill-rule="nonzero" fill="rgb(0%, 0%, 0%)" fill-opacity="1" d="M 1533.640625 2289.546875 C 1533.640625 2272.089844 1536.199219 2257.734375 1541.328125 2246.472656 C 1546.53125 2235.144531 1553.289062 2226.71875 1561.621094 2221.1875 C 1569.949219 2215.65625 1580.039062 2212.890625 1591.898438 2212.890625 C 1609.089844 2212.890625 1623.089844 2219.453125 1633.878906 2232.582031 C 1644.738281 2245.707031 1650.171875 2264.394531 1650.171875 2288.648438 C 1650.171875 2313.167969 1644.441406 2332.324219 1632.980469 2346.113281 C 1622.921875 2358.308594 1609.261719 2364.40625 1592 2364.40625 C 1574.609375 2364.40625 1560.890625 2358.375 1550.828125 2346.316406 C 1539.371094 2332.523438 1533.640625 2313.601562 1533.640625 2289.546875 Z M 1558.628906 2288.546875 C 1558.628906 2305.40625 1561.820312 2318.066406 1568.21875 2326.527344 C 1574.609375 2334.921875 1582.539062 2339.121094 1592 2339.121094 C 1601.53125 2339.121094 1609.429688 2334.953125 1615.691406 2326.625 C 1621.949219 2318.230469 1625.089844 2305.371094 1625.089844 2288.046875 C 1625.089844 2271.058594 1622.019531 2258.5 1615.890625 2250.371094 C 1609.828125 2242.242188 1601.859375 2238.175781 1592 2238.175781 C 1582.140625 2238.175781 1574.109375 2242.273438 1567.921875 2250.46875 C 1561.71875 2258.664062 1558.628906 2271.359375 1558.628906 2288.546875 Z M 1558.628906 2288.546875 "/>
<path fill-rule="nonzero" fill="rgb(0%, 0%, 0%)" fill-opacity="1" d="M 1705.320312 2361.90625 L 1662.441406 2215.390625 L 1688.730469 2215.390625 L 1719.109375 2323.828125 L 1748.5 2215.390625 L 1774.28125 2215.390625 L 1731.308594 2361.90625 Z M 1705.320312 2361.90625 "/>
<path fill-rule="nonzero" fill="rgb(0%, 0%, 0%)" fill-opacity="1" d="M 1792.160156 2361.90625 L 1792.160156 2215.390625 L 1881.308594 2215.390625 L 1881.308594 2240.175781 L 1816.339844 2240.175781 L 1816.339844 2272.65625 L 1876.710938 2272.65625 L 1876.710938 2297.34375 L 1816.339844 2297.34375 L 1816.339844 2337.21875 L 1883.5 2337.21875 L 1883.5 2361.90625 Z M 1792.160156 2361.90625 "/>
<path fill-rule="nonzero" fill="rgb(0%, 0%, 0%)" fill-opacity="1" d="M 1909.570312 2361.90625 L 1909.570312 2215.390625 L 1960.640625 2215.390625 C 1973.699219 2215.390625 1983.03125 2216.722656 1988.628906 2219.386719 C 1994.21875 2221.988281 1998.820312 2226.550781 2002.421875 2233.078125 C 2006.019531 2239.542969 2007.820312 2247.304688 2007.820312 2256.367188 C 2007.820312 2267.828125 2005.050781 2277.054688 1999.519531 2284.050781 C 1994.058594 2291.046875 1986.261719 2295.445312 1976.128906 2297.242188 C 1981.328125 2300.972656 1985.628906 2305.070312 1989.03125 2309.535156 C 1992.429688 2313.933594 1997.058594 2321.863281 2002.921875 2333.324219 L 2017.511719 2361.90625 L 1988.628906 2361.90625 L 1971.039062 2330.023438 C 1964.710938 2318.496094 1960.410156 2311.300781 1958.140625 2308.4375 C 1955.878906 2305.503906 1953.480469 2303.507812 1950.949219 2302.441406 C 1948.421875 2301.308594 1944.351562 2300.742188 1938.75 2300.742188 L 1933.761719 2300.742188 L 1933.761719 2361.90625 Z M 1933.761719 2277.355469 L 1951.75 2277.355469 C 1962.738281 2277.355469 1969.738281 2276.886719 1972.730469 2275.957031 C 1975.730469 2274.957031 1978.171875 2272.992188 1980.03125 2270.058594 C 1981.898438 2267.128906 1982.828125 2263.230469 1982.828125 2258.367188 C 1982.828125 2253.703125 1981.898438 2249.96875 1980.03125 2247.171875 C 1978.171875 2244.308594 1975.628906 2242.339844 1972.441406 2241.273438 C 1970.171875 2240.542969 1963.609375 2240.175781 1952.75 2240.175781 L 1933.761719 2240.175781 Z M 1933.761719 2277.355469 "/>
<path fill-rule="nonzero" fill="rgb(0%, 0%, 0%)" fill-opacity="1" d="M 2029.988281 2314.234375 L 2053.671875 2311.433594 C 2056.339844 2330.15625 2065.070312 2339.519531 2079.859375 2339.519531 C 2087.191406 2339.519531 2092.949219 2337.621094 2097.148438 2333.824219 C 2101.351562 2329.957031 2103.449219 2325.195312 2103.449219 2319.53125 C 2103.449219 2316.199219 2102.710938 2313.367188 2101.25 2311.035156 C 2099.78125 2308.703125 2097.550781 2306.804688 2094.550781 2305.339844 C 2091.550781 2303.804688 2084.289062 2301.273438 2072.761719 2297.742188 C 2062.429688 2294.613281 2054.871094 2291.214844 2050.070312 2287.546875 C 2045.28125 2283.882812 2041.441406 2279.085938 2038.578125 2273.15625 C 2035.789062 2267.160156 2034.378906 2260.730469 2034.378906 2253.867188 C 2034.378906 2245.871094 2036.179688 2238.675781 2039.78125 2232.28125 C 2043.441406 2225.882812 2048.480469 2221.054688 2054.871094 2217.789062 C 2061.269531 2214.523438 2069.160156 2212.890625 2078.558594 2212.890625 C 2092.679688 2212.890625 2103.710938 2216.722656 2111.640625 2224.386719 C 2119.570312 2232.046875 2123.769531 2243.007812 2124.230469 2257.265625 L 2099.949219 2258.566406 C 2098.878906 2250.703125 2096.578125 2245.207031 2093.050781 2242.074219 C 2089.519531 2238.941406 2084.488281 2237.378906 2077.960938 2237.378906 C 2071.429688 2237.378906 2066.398438 2238.742188 2062.871094 2241.476562 C 2059.339844 2244.207031 2057.570312 2247.605469 2057.570312 2251.667969 C 2057.570312 2255.667969 2059.171875 2259.03125 2062.371094 2261.761719 C 2065.570312 2264.496094 2072.929688 2267.492188 2084.460938 2270.757812 C 2096.648438 2274.289062 2105.449219 2278.019531 2110.839844 2281.953125 C 2116.308594 2285.816406 2120.46875 2290.847656 2123.328125 2297.042969 C 2126.199219 2303.171875 2127.628906 2310.636719 2127.628906 2319.429688 C 2127.628906 2332.15625 2123.699219 2342.851562 2115.839844 2351.511719 C 2108.039062 2360.171875 2095.820312 2364.503906 2079.160156 2364.503906 C 2049.710938 2364.503906 2033.320312 2347.746094 2029.988281 2314.234375 Z M 2029.988281 2314.234375 "/>
</svg>
